<svg width="40" height="50" viewBox="0 0 40 50" fill="none" xmlns="http://www.w3.org/2000/svg">
<path d="M19.5 2L1 13V37.5L19.5 48L39 37.5V13L19.5 2Z" fill="#2464FB" stroke="black" stroke-width="2"/>
<path d="M12 11L19.5 24.5" stroke="black" stroke-width="2"/>
<path d="M12.5 12C7.06534 15.8572 5.76074 18.9135 5.5 25C5.5 33.2843 11.7157 40 20 40C28.2843 40 34.5 33.2843 34.5 25C33.9951 19.7289 33.2444 17.5021 29.5 14.5" stroke="black" stroke-width="2"/>
<path d="M14.5 16C13.5989 16.7128 12.8848 17.4017 12.316 18.1002C9.00719 22.1638 9.2398 29.0713 13.0782 32.6389C13.3738 32.9136 13.6938 33.1565 14.0422 33.3724C17.5591 35.5526 22.3667 35.5156 26.0139 33.561C26.2614 33.4284 26.4959 33.2853 26.7183 33.1307C31.4885 29.8151 31.2412 21.9443 27.5 17.5V17.5" stroke="black" stroke-width="2"/>
<path d="M16.5 20C15.6941 20.5295 15.1363 21.0543 14.7512 21.7497C13.6676 23.7064 13.8003 26.2593 14.8523 28.2332C15.1603 28.8111 15.5517 29.2664 16.045 29.6339C18.2906 31.3069 21.695 31.3528 23.9847 29.7405C24.2433 29.5585 24.4806 29.3539 24.6986 29.1241C26.7786 26.9303 26.5773 23.1963 24.5 21V21" stroke="black" stroke-width="2"/>
<circle cx="20" cy="25" r="2" fill="black"/>
</svg>
