<?xml version="1.0" encoding="UTF-8"?>
<svg width="700pt" height="700pt" version="1.1" viewBox="0 0 700 700" xmlns="http://www.w3.org/2000/svg" xmlns:xlink="http://www.w3.org/1999/xlink">
 
 <g>
  <path fill="#fff" d="m688.54 159.92-334.37-158.95c-2.6367-1.2539-5.6992-1.2539-8.3359 0l-334.37 158.95c-3.3438 1.6172-5.4688 5.0078-5.4688 8.7227s2.125 7.1016 5.4688 8.7227l116.59 55.242v104.68c0 72.785 97.5 129.87 221.95 129.87 55.145 1.1367 109.62-12.234 157.98-38.77v47.684l-19.965 41.289h-0.003906c-4.168 7.9844-4.168 17.504 0 25.488 3.9727 6.9648 10.281 12.293 17.809 15.047 7.5273 2.7539 15.785 2.7539 23.312 0 7.5273-2.7539 13.836-8.082 17.809-15.047 4.168-7.9844 4.168-17.504 0-25.488l-19.578-41.289v-60.766c28.008-21.809 44.582-48.461 44.582-78.02v-104.68l116.3-55.438c3.3438-1.6172 5.4648-5.0078 5.4648-8.7227 0-3.7148-2.1211-7.1016-5.4648-8.7227zm-342.71 176.39c2.6367 1.2578 5.6992 1.2578 8.3359 0l153.81-73.074v103.41c-37.508 25.59-94.984 42.355-157.98 42.355-111.46 0-202.56-49.527-202.56-110.49v-56.215zm206.73-37.797c-0.92969 20.176-10.027 39.105-25.199 52.434v-96.918l25.199-11.73zm-34.988-61.254-21.902-10.953 102.73-48.945-0.003906 0.003906c3.3438-1.6211 5.4688-5.0078 5.4688-8.7227s-2.125-7.1055-5.4688-8.7227l-244.24-116.3h0.003907c-2.6367-1.2539-5.6992-1.2539-8.3359 0l-244.24 116.3h0.003906c-3.3438 1.6172-5.4688 5.0078-5.4688 8.7227s2.125 7.1016 5.4688 8.7227l244.24 116.3-0.003907-0.003907c2.6367 1.2578 5.6992 1.2578 8.3359 0l119.21-56.699 21.902 10.855-145.38 69.008-311.69-148.19 311.79-148.19 311.79 148.19zm-171.94-63.773 106.13 52.434-101.28 48.461-222.14-105.74 221.66-105.55 221.66 105.55-98.086 46.715-118.72-59.316c-4.8203-2.4062-10.676-0.45312-13.086 4.3633-2.4102 4.8164-0.45703 10.676 4.3633 13.082z"/>
  <use x="5.9375" y="705.378906" xlink:href="#n"/>
  <use x="41.5" y="705.378906" xlink:href="#i"/>
  <use x="65.398438" y="705.378906" xlink:href="#a"/>
  <use x="98.265625" y="705.378906" xlink:href="#h"/>
  <use x="130.964844" y="705.378906" xlink:href="#c"/>
  <use x="154.132812" y="705.378906" xlink:href="#a"/>
  <use x="186.996094" y="705.378906" xlink:href="#b"/>
  <use x="238.558594" y="705.378906" xlink:href="#g"/>
  <use x="273.246094" y="705.378906" xlink:href="#f"/>
  <use x="321.703125" y="705.378906" xlink:href="#e"/>
  <use x="354.808594" y="705.378906" xlink:href="#d"/>
  <use x="389.308594" y="705.378906" xlink:href="#m"/>
  <use x="418.152344" y="705.378906" xlink:href="#a"/>
  <use x="467.886719" y="705.378906" xlink:href="#l"/>
  <use x="502.789062" y="705.378906" xlink:href="#c"/>
  <use x="525.953125" y="705.378906" xlink:href="#d"/>
  <use x="560.453125" y="705.378906" xlink:href="#b"/>
  <use x="595.140625" y="705.378906" xlink:href="#k"/>
  <use x="611.753906" y="705.378906" xlink:href="#j"/>
 </g>
</svg>
