<?xml version="1.0" encoding="UTF-8"?>
<svg width="700pt" height="700pt" version="1.1" viewBox="0 0 700 700" xmlns="http://www.w3.org/2000/svg">
 <path d="m350 156.05c11.504-19.973 23.684-35.77 38.242-47.414 19.672-15.727 42.98-23.59 73.758-23.59 34.137 0 65.055 13.859 87.43 36.238 22.379 22.375 36.238 53.289 36.238 87.426 0 81.012-52.523 121.01-122.29 174.11-32.434 24.711-68.809 52.383-105.12 88.715-4.5508 4.5273-11.945 4.5273-16.496 0-36.328-36.328-72.684-64.027-105.14-88.738-69.742-53.082-122.29-93.125-122.29-174.09 0-34.113 13.859-65.055 36.262-87.43 22.348-22.375 53.266-36.234 87.402-36.234 30.777 0 54.086 7.8633 73.758 23.59 14.559 11.668 26.738 27.461 38.242 47.414z" fill-rule="evenodd"/>
</svg>
