<?xml version="1.0" encoding="UTF-8"?>
<svg width="700pt" height="700pt" version="1.1" viewBox="0 0 700 700" xmlns="http://www.w3.org/2000/svg" xmlns:xlink="http://www.w3.org/1999/xlink">

 <g>
  <path fill="#fff" d="m522.84 161.77-54.621-54.629c-9.7891-9.8008-17.5-9.8008-27.301 0.011719l-59.16 59.152c-9.8125 9.8125-9.8242 17.516-0.011719 27.312l54.617 54.617c9.8125 9.8125 17.512 9.8008 27.316 0l59.164-59.164c9.8008-9.8008 9.8008-17.508-0.003906-27.301z"/>
  <path fill="#fff" d="m525.16 141.64c1.0938 1.0938 2.832 1.0586 3.8789-0.074219l12.621-13.613c6.2773-6.7891 6.4336-12.242 0.18359-19.066-4.25-4.6133-6.6211-7.0859-10.148-10.605-3.5-3.5117-5.9648-5.9062-10.594-10.164-6.8203-6.25-12.266-6.0977-19.051 0.18359l-13.629 12.633c-1.1367 1.0547-1.1719 2.7891-0.078125 3.8789z"/>
  <path fill="#fff" d="m187.32 35.426c32.996 18.809 101.29 59.734 173.65 120.11 1.1875 0.99219 3.0312 0.90625 4.1094-0.19141l56.816-57.379c1.0938-1.0977 0.92969-2.6953-0.35156-3.5508-97.402-64.793-190.82-67.746-232.64-66.121-8.5234 0.33594-9 2.9102-1.5859 7.1289z"/>
  <path fill="#fff" d="m535.59 208.44c-0.86328-1.2891-2.4531-1.4492-3.5547-0.35938l-57.395 56.832c-1.0977 1.0859-1.1797 2.9297-0.19141 4.1172 60.375 72.359 101.3 140.66 120.12 173.67 4.2227 7.3984 6.8047 6.9336 7.1328-1.5859 1.625-41.816-1.3203-135.25-66.117-232.67z"/>
  <path fill="#fff" d="m379.47 214.27c-1.1016-1.0938-2.9102-1.1367-4.0547-0.089844l-260.4 237.45c-0.40234 0.4375-0.76172 0.71094-1.2539 1.2109-21.012 21.012-21.004 42.387 0.003906 63.398 21.012 21.012 42.379 21.012 63.398 0 0.48047-0.48047 0.75781-0.85156 1.1602-1.2891 0.035156 0.042969 215.07-235.79 237.5-260.38 1.043-1.1406 0.99609-2.9531-0.10156-4.043z"/>
  <use x="70" y="644" xlink:href="#v"/>
  <use x="90.550781" y="644" xlink:href="#d"/>
  <use x="104.359375" y="644" xlink:href="#a"/>
  <use x="123.347656" y="644" xlink:href="#c"/>
  <use x="142.242188" y="644" xlink:href="#b"/>
  <use x="155.628906" y="644" xlink:href="#a"/>
  <use x="174.617188" y="644" xlink:href="#f"/>
  <use x="204.410156" y="644" xlink:href="#k"/>
  <use x="224.453125" y="644" xlink:href="#j"/>
  <use x="252.453125" y="644" xlink:href="#i"/>
  <use x="275.695312" y="644" xlink:href="#c"/>
  <use x="294.589844" y="644" xlink:href="#u"/>
  <use x="312.839844" y="644" xlink:href="#h"/>
  <use x="322.4375" y="644" xlink:href="#f"/>
  <use x="352.226562" y="644" xlink:href="#t"/>
  <use x="373.925781" y="644" xlink:href="#g"/>
  <use x="393.859375" y="644" xlink:href="#c"/>
  <use x="412.753906" y="644" xlink:href="#h"/>
  <use x="70" y="672" xlink:href="#s"/>
  <use x="82.183594" y="672" xlink:href="#d"/>
  <use x="95.992188" y="672" xlink:href="#e"/>
  <use x="115.226562" y="672" xlink:href="#r"/>
  <use x="154.152344" y="672" xlink:href="#b"/>
  <use x="167.535156" y="672" xlink:href="#g"/>
  <use x="187.46875" y="672" xlink:href="#a"/>
  <use x="216.207031" y="672" xlink:href="#q"/>
  <use x="239.640625" y="672" xlink:href="#e"/>
  <use x="258.878906" y="672" xlink:href="#p"/>
  <use x="278.8125" y="672" xlink:href="#o"/>
  <use x="308.492188" y="672" xlink:href="#n"/>
  <use x="329.015625" y="672" xlink:href="#d"/>
  <use x="342.820312" y="672" xlink:href="#e"/>
  <use x="362.058594" y="672" xlink:href="#m"/>
  <use x="371.65625" y="672" xlink:href="#a"/>
  <use x="390.648438" y="672" xlink:href="#l"/>
  <use x="407.242188" y="672" xlink:href="#b"/>
 </g>
</svg>
