<?xml version="1.0" encoding="UTF-8"?>
<svg width="700pt" height="700pt" version="1.1" viewBox="0 0 700 700" xmlns="http://www.w3.org/2000/svg" xmlns:xlink="http://www.w3.org/1999/xlink">

 <g>
  <path fill="#fff" d="m468.72 212.24v-61.602-0.55859-1.1211c0-39.762-32.48-71.68-71.68-71.68-5.6016 0-10.641 0.55859-15.68 1.6797-16.801-25.199-45.922-40.879-76.719-40.879-39.762 0-73.922 24.641-87.359 60.48-42.559-1.6797-77.84 33.039-77.84 75.039v104.16c0 31.359 22.961 57.68 53.199 62.719v98c0 46.48 37.52 84 84 84h108.08c44.238 0 80.641-34.719 84-78.398 51.52-1.1211 92.961-43.121 92.961-95.199v-40.879c-0.55859-52.078-42-94.078-92.961-95.762zm-296.24 65.523v-104.16c0-22.961 18.48-41.441 41.441-41.441 3.3594 0 6.7188 0.55859 10.641 1.6797 4.4805 1.1211 9.5195 0.55859 13.441-2.2383 3.9219-2.8008 6.7188-6.7188 7.2812-11.199 5.0391-28 29.68-48.719 58.238-48.719 22.961 0 44.238 13.441 53.762 34.719 1.6797 3.9219 5.0391 7.2812 9.5195 8.9609 4.4805 1.6797 8.9609 1.1211 12.879-0.55859 5.0391-2.2383 10.641-3.9219 16.238-3.9219 21.281 0 38.078 17.359 38.078 38.078 0 21.281-17.359 38.078-38.078 38.078-10.641 0-20.719-4.4805-28-12.32-2.8008-3.3594-7.2812-5.0391-11.762-5.6016-4.4805 0-8.9609 1.6797-12.32 4.4805-11.199 10.641-25.762 16.238-40.879 16.238-10.078 0-19.602-2.2383-28.559-7.2812-3.9219-2.2383-8.9609-2.8008-13.441-1.1211-4.4805 1.6797-7.8398 5.0391-10.078 8.9609-2.8008 6.1602-7.2812 11.762-12.879 16.238-4.4805 3.3594-6.7188 8.3984-6.7188 13.441v57.68c0 16.238-13.441 29.68-29.68 29.68-15.684 0.007812-29.125-13.434-29.125-29.672zm212.24 210.56h-108.64c-28 0-50.398-22.398-50.398-50.398v-101.36c23.52-8.957 40.32-31.918 40.32-58.797v-49.84c2.8008-2.8008 5.6016-6.1602 8.3984-8.9609 9.5195 3.3594 19.602 5.0391 29.68 5.0391 18.48 0 36.398-5.6016 51.52-15.68 11.762 8.3984 26.32 12.879 40.879 12.879 14 0 27.441-3.9219 38.078-11.199v228.48c0.56641 27.441-22.395 49.84-49.836 49.84zm142.8-140c0 33.039-26.32 59.922-58.801 61.602v-164.08c32.48 1.1211 58.801 28.559 58.801 61.602z"/>
  <path fill="#fff" d="m288.96 320.32c-9.5195 0-16.801 7.2812-16.801 16.801v106.4c0 9.5195 7.2812 16.801 16.801 16.801 9.5195 0 16.801-7.2812 16.801-16.801v-106.4c0-8.9609-7.2812-16.801-16.801-16.801z"/>
  <path fill="#fff" d="m367.92 241.92c-9.5195 0-16.801 7.2812-16.801 16.801v184.8c0 9.5195 7.2812 16.801 16.801 16.801s16.801-7.2812 16.801-16.801v-184.8c-0.003906-8.9609-7.8438-16.801-16.801-16.801z"/>
  <use x="70" y="644" xlink:href="#s"/>
  <use x="90.550781" y="644" xlink:href="#b"/>
  <use x="104.359375" y="644" xlink:href="#a"/>
  <use x="123.347656" y="644" xlink:href="#d"/>
  <use x="142.242188" y="644" xlink:href="#c"/>
  <use x="155.628906" y="644" xlink:href="#a"/>
  <use x="174.617188" y="644" xlink:href="#k"/>
  <use x="204.410156" y="644" xlink:href="#j"/>
  <use x="224.453125" y="644" xlink:href="#f"/>
  <use x="252.453125" y="644" xlink:href="#i"/>
  <use x="269.117188" y="644" xlink:href="#h"/>
  <use x="289.050781" y="644" xlink:href="#d"/>
  <use x="307.945312" y="644" xlink:href="#g"/>
  <use x="327.878906" y="644" xlink:href="#b"/>
  <use x="341.6875" y="644" xlink:href="#f"/>
  <use x="359.9375" y="644" xlink:href="#d"/>
  <use x="70" y="672" xlink:href="#r"/>
  <use x="82.183594" y="672" xlink:href="#b"/>
  <use x="95.992188" y="672" xlink:href="#e"/>
  <use x="115.226562" y="672" xlink:href="#q"/>
  <use x="154.152344" y="672" xlink:href="#c"/>
  <use x="167.535156" y="672" xlink:href="#h"/>
  <use x="187.46875" y="672" xlink:href="#a"/>
  <use x="216.207031" y="672" xlink:href="#p"/>
  <use x="239.640625" y="672" xlink:href="#e"/>
  <use x="258.878906" y="672" xlink:href="#g"/>
  <use x="278.8125" y="672" xlink:href="#o"/>
  <use x="308.492188" y="672" xlink:href="#n"/>
  <use x="329.015625" y="672" xlink:href="#b"/>
  <use x="342.820312" y="672" xlink:href="#e"/>
  <use x="362.058594" y="672" xlink:href="#m"/>
  <use x="371.65625" y="672" xlink:href="#a"/>
  <use x="390.648438" y="672" xlink:href="#l"/>
  <use x="407.242188" y="672" xlink:href="#c"/>
 </g>
</svg>
