<?xml version="1.0" encoding="UTF-8"?>
<svg width="700pt" height="700pt" version="1.1" viewBox="0 0 700 700" xmlns="http://www.w3.org/2000/svg" xmlns:xlink="http://www.w3.org/1999/xlink">
 
 <g>
  <path fill="#fff" d="m141.4 286.52c0 0.73828 0.078124 1.4727 0.21875 2.1992 0.0625 0.32422 0.18359 0.62109 0.27344 0.93359 0.11328 0.38672 0.20312 0.77734 0.35938 1.1523 0.15234 0.35937 0.35156 0.68359 0.53906 1.0234 0.16406 0.30078 0.29688 0.61719 0.49219 0.90625 0.37109 0.54688 0.79688 1.0586 1.2539 1.5352 0.050782 0.054688 0.085938 0.11719 0.14062 0.16797l104.23 104.29c0.039063 0.039063 0.085938 0.066407 0.12891 0.10156 0.48828 0.47656 1.0117 0.90625 1.5781 1.2891 0.29687 0.19531 0.60937 0.33594 0.92578 0.5 0.33594 0.17969 0.65625 0.38672 1.0078 0.53125 0.37891 0.15625 0.77344 0.24609 1.1641 0.36328 0.30859 0.089843 0.60547 0.20703 0.92578 0.27344 0.72266 0.14453 1.4609 0.22266 2.1953 0.22266h100.57c4.8281 8.1992 10.965 15.527 18.184 21.648l-0.003906 97.145c0 4.1992 2.3477 8.0469 6.082 9.9609 3.7344 1.9219 8.2305 1.5859 11.641-0.86328l36.586-26.227 36.637 26.227c1.9375 1.3945 4.2227 2.1016 6.5156 2.1016 1.7539 0 3.5039-0.41016 5.1172-1.2383 3.7344-1.9219 6.082-5.7617 6.082-9.9609l0.003906-97.168c7.207-6.1133 13.332-13.434 18.156-21.621h20.305c19.789 0 35.891-16.102 35.891-35.887v-302.23c0-19.789-16.102-35.891-35.891-35.891h-345.42c-19.789 0-35.891 16.102-35.891 35.891zm104.24 77.246-66.004-66.035h52.516c7.4375 0 13.492 6.0547 13.492 13.492zm216.21 135.24-25.434-18.211c-3.8984-2.793-9.1445-2.793-13.043 0l-25.379 18.195v-61.672c9.8516 4.0547 20.621 6.3281 31.914 6.3281 11.305 0 22.086-2.2734 31.949-6.3398v61.699zm-284.56-448.61h345.42c7.4375 0 13.492 6.0547 13.492 13.492v302.24c0 7.4375-6.0547 13.484-13.492 13.484h-11.184c1.5977-6.4609 2.5352-13.184 2.5352-20.125 0-46.406-37.754-84.156-84.156-84.156-12.734 0-24.977 2.7773-36.391 8.2539-5.5781 2.6836-7.9297 9.3672-5.2539 14.945 2.6758 5.5781 9.3594 7.918 14.945 5.2539 8.3555-4.0156 17.336-6.0469 26.691-6.0469 34.055 0 61.758 27.703 61.758 61.758 0.003906 34.051-27.691 61.746-61.746 61.746s-61.762-27.703-61.762-61.754c0-11.277 3.0625-22.309 8.8633-31.91 3.2031-5.293 1.5078-12.18-3.793-15.379-5.293-3.207-12.176-1.5078-15.379 3.793-7.918 13.086-12.102 28.129-12.102 43.496 0 6.9492 0.94141 13.664 2.5352 20.125h-80.23v-68.398c0-19.789-16.102-35.891-35.891-35.891h-68.348v-211.43c0-7.4375 6.0547-13.492 13.488-13.492z"/>
  <path fill="#fff" d="m217.39 175.23h265.22c6.1836 0 11.199-5.0195 11.199-11.199 0-6.1836-5.0195-11.199-11.199-11.199l-265.22-0.003906c-6.1836 0-11.199 5.0195-11.199 11.199 0 6.1836 5.0156 11.203 11.199 11.203z"/>
  <path fill="#fff" d="m217.39 107.25h182.78c6.1836 0 11.199-5.0195 11.199-11.199 0-6.1836-5.0195-11.199-11.199-11.199h-182.78c-6.1836 0-11.199 5.0195-11.199 11.199 0 6.1836 5.0156 11.199 11.199 11.199z"/>
  <path fill="#fff" d="m441.47 107.25h41.137c6.1836 0 11.199-5.0195 11.199-11.199 0-6.1836-5.0195-11.199-11.199-11.199h-41.137c-6.1836 0-11.199 5.0195-11.199 11.199 0 6.1836 5.0195 11.199 11.199 11.199z"/>
  <path fill="#fff" d="m217.39 243.2h39.922c6.1836 0 11.199-5.0195 11.199-11.199 0-6.1836-5.0195-11.199-11.199-11.199h-39.922c-6.1836 0-11.199 5.0195-11.199 11.199 0 6.1797 5.0156 11.199 11.199 11.199z"/>
  <path fill="#fff" d="m359.44 220.8h-59.84c-6.1836 0-11.199 5.0195-11.199 11.199 0 6.1836 5.0195 11.199 11.199 11.199h59.84c6.1836 0 11.199-5.0195 11.199-11.199s-5.0117-11.199-11.199-11.199z"/>
  <use x="70" y="644" xlink:href="#y"/>
  <use x="90.550781" y="644" xlink:href="#d"/>
  <use x="104.359375" y="644" xlink:href="#a"/>
  <use x="123.347656" y="644" xlink:href="#e"/>
  <use x="142.242188" y="644" xlink:href="#c"/>
  <use x="155.628906" y="644" xlink:href="#a"/>
  <use x="174.617188" y="644" xlink:href="#l"/>
  <use x="204.410156" y="644" xlink:href="#k"/>
  <use x="224.453125" y="644" xlink:href="#j"/>
  <use x="252.453125" y="644" xlink:href="#i"/>
  <use x="280.3125" y="644" xlink:href="#e"/>
  <use x="299.210938" y="644" xlink:href="#x"/>
  <use x="317.269531" y="644" xlink:href="#h"/>
  <use x="326.867188" y="644" xlink:href="#g"/>
  <use x="365.789062" y="644" xlink:href="#w"/>
  <use x="387.488281" y="644" xlink:href="#f"/>
  <use x="407.421875" y="644" xlink:href="#v"/>
  <use x="417.019531" y="644" xlink:href="#h"/>
  <use x="426.617188" y="644" xlink:href="#u"/>
  <use x="445.238281" y="644" xlink:href="#b"/>
  <use x="464.476562" y="644" xlink:href="#t"/>
  <use x="70" y="672" xlink:href="#s"/>
  <use x="82.183594" y="672" xlink:href="#d"/>
  <use x="95.992188" y="672" xlink:href="#b"/>
  <use x="115.226562" y="672" xlink:href="#g"/>
  <use x="154.152344" y="672" xlink:href="#c"/>
  <use x="167.535156" y="672" xlink:href="#r"/>
  <use x="187.46875" y="672" xlink:href="#a"/>
  <use x="216.207031" y="672" xlink:href="#q"/>
  <use x="239.640625" y="672" xlink:href="#b"/>
  <use x="258.878906" y="672" xlink:href="#f"/>
  <use x="278.8125" y="672" xlink:href="#p"/>
  <use x="308.492188" y="672" xlink:href="#o"/>
  <use x="329.015625" y="672" xlink:href="#d"/>
  <use x="342.820312" y="672" xlink:href="#b"/>
  <use x="362.058594" y="672" xlink:href="#n"/>
  <use x="371.65625" y="672" xlink:href="#a"/>
  <use x="390.648438" y="672" xlink:href="#m"/>
  <use x="407.242188" y="672" xlink:href="#c"/>
 </g>
</svg>
