<?xml version="1.0" encoding="UTF-8"?>
<svg width="700pt" height="700pt" version="1.1" viewBox="0 0 700 700" xmlns="http://www.w3.org/2000/svg" xmlns:xlink="http://www.w3.org/1999/xlink">
 
 <g>
  <path fill="#fff" d="m377.05 128.18c26.098 0 47.266-21.168 47.266-47.266 0-26.098-21.168-47.266-47.266-47.266s-47.266 21.168-47.266 47.266c0 26.098 21.168 47.266 47.266 47.266z"/>
  <path fill="#fff" d="m538.78 222.32-40.77-55.664c-6.8867-9.4062-17.023-15.848-28.391-18.145l-40.098-7.8945c-5.543-1.1211-11.199-1.625-16.91-1.5117l-56.113 1.1758c-13.609 0-33.711 4.3125-44.91 12.098l-42.168 24.414-53.93-40.711c-6.7188-5.0977-16.238-4.1445-21.785 2.1836-5.4883 6.2148-5.375 15.566 0.22266 21.617l53.312 57.848c9.8555 10.695 25.648 13.551 38.641 7l31.586-12.375-4.0312 68.098-44.742 94.414c-6.1602 11.762-7.0547 25.594-2.5742 38.078l36.68 102.2c3.3594 9.3516 13.945 13.887 23.016 9.8555 7.1133-3.1367 11.199-10.695 9.9688-18.367l-14-97.832c-0.78516-4.8711 0.28125-9.8555 3.0234-14l30.129-49.113-8.5664 46.762c-1.0625 10.586 1.3438 21.281 6.8867 30.406l54.824 90.215c5.207 8.5664 16.688 10.754 24.641 4.7031 5.8242-4.4258 8.1211-12.039 5.7695-18.93l-32.871-96.543c-1.2891-3.6953-1.2891-7.7266-0.11328-11.48l19.207-60.871c2.6328-8.2891 3.9219-16.91 3.9219-25.594v-101.64l32.48-4.1992c6.4414-0.33594 12.656 2.1836 17.137 6.7773l36.398 37.52c5.7109 5.8789 15.008 6.4414 21.391 1.2305 6.5508-5.3203 7.7852-14.84 2.8008-21.672z"/>
  <path fill="#fff" d="m216.83 244.33c-3.6406-1.625-7.9531 0-9.6328 3.6406-0.83984 1.8477-19.879 45.246 0.11328 85.289 1.2891 2.5195 3.8633 4.0312 6.4961 4.0312 1.1211 0 2.1836-0.22266 3.2461-0.78516 3.5859-1.793 5.0391-6.1602 3.2461-9.7422-16.855-33.77 0-72.406 0.11328-72.801 1.625-3.6406 0-7.9531-3.6406-9.6328z"/>
  <path fill="#fff" d="m493.75 335.83c-3.4141-2.1289-7.8945-1.1211-10.023 2.2969-0.28125 0.50391-7.4492 12.039-11.871 29.961-5.7695 23.801-3.9219 47.77 5.375 69.383 1.1758 2.7422 3.8633 4.4258 6.6641 4.4258 0.95312 0 1.9609-0.16797 2.8555-0.61719 3.6953-1.5664 5.375-5.8789 3.8086-9.5742-8.1211-18.816-9.6875-38.863-4.7031-59.695 3.7539-15.734 10.078-26.039 10.137-26.207 2.1289-3.4141 1.1211-7.8945-2.2969-10.023z"/>
  <path fill="#fff" d="m533.79 380.91c1.793-3.5859 0.33594-7.9531-3.2461-9.7422-3.5859-1.793-7.9531-0.33594-9.7422 3.2461-0.89453 1.793-22.062 45.023 0.50391 77.895 1.3984 2.0703 3.6953 3.1914 5.9922 3.1914 1.3984 0 2.8555-0.39062 4.0898-1.2891 3.3047-2.2969 4.1445-6.832 1.9023-10.137-17.695-25.762 0.33594-62.777 0.50391-63.168z"/>
  <path fill="#fff" d="m184.13 207.14c-1.8477 0-3.5273 0.67188-4.8164 1.8477 0 0-0.16797 0.11328-0.28125 0.22266h-0.054688c-3.5273 3.3594-30.129 30.855-17.305 93.352 0.72656 3.4141 3.7539 5.8242 7.1133 5.8242 0.50391 0 0.95312 0 1.457-0.16797 3.9219-0.78516 6.4961-4.6484 5.6562-8.5664-3.3594-16.406-5.7109-40.375 2.1289-61.543 4.1992-11.312 9.6328-17.078 10.695-18.09 1.625-1.3438 2.6328-3.3594 2.6328-5.6016 0-4.0312-3.2461-7.2812-7.2812-7.2812z"/>
  <use x="70" y="644" xlink:href="#u"/>
  <use x="90.550781" y="644" xlink:href="#c"/>
  <use x="104.359375" y="644" xlink:href="#a"/>
  <use x="123.347656" y="644" xlink:href="#o"/>
  <use x="142.242188" y="644" xlink:href="#b"/>
  <use x="155.628906" y="644" xlink:href="#a"/>
  <use x="174.617188" y="644" xlink:href="#n"/>
  <use x="204.410156" y="644" xlink:href="#m"/>
  <use x="224.453125" y="644" xlink:href="#l"/>
  <use x="252.453125" y="644" xlink:href="#k"/>
  <use x="272.617188" y="644" xlink:href="#j"/>
  <use x="292.550781" y="644" xlink:href="#i"/>
  <use x="312.484375" y="644" xlink:href="#e"/>
  <use x="329.082031" y="644" xlink:href="#h"/>
  <use x="349.015625" y="644" xlink:href="#a"/>
  <use x="368.007812" y="644" xlink:href="#t"/>
  <use x="377.601562" y="644" xlink:href="#s"/>
  <use x="396.949219" y="644" xlink:href="#g"/>
  <use x="417.46875" y="644" xlink:href="#c"/>
  <use x="431.28125" y="644" xlink:href="#d"/>
  <use x="450.515625" y="644" xlink:href="#f"/>
  <use x="460.113281" y="644" xlink:href="#a"/>
  <use x="479.101562" y="644" xlink:href="#e"/>
  <use x="495.703125" y="644" xlink:href="#b"/>
  <use x="70" y="672" xlink:href="#r"/>
  <use x="82.183594" y="672" xlink:href="#c"/>
  <use x="95.992188" y="672" xlink:href="#d"/>
  <use x="115.226562" y="672" xlink:href="#q"/>
  <use x="154.152344" y="672" xlink:href="#b"/>
  <use x="167.535156" y="672" xlink:href="#h"/>
  <use x="187.46875" y="672" xlink:href="#a"/>
  <use x="216.207031" y="672" xlink:href="#p"/>
  <use x="239.640625" y="672" xlink:href="#d"/>
  <use x="258.878906" y="672" xlink:href="#j"/>
  <use x="278.8125" y="672" xlink:href="#i"/>
  <use x="308.492188" y="672" xlink:href="#g"/>
  <use x="329.015625" y="672" xlink:href="#c"/>
  <use x="342.820312" y="672" xlink:href="#d"/>
  <use x="362.058594" y="672" xlink:href="#f"/>
  <use x="371.65625" y="672" xlink:href="#a"/>
  <use x="390.648438" y="672" xlink:href="#e"/>
  <use x="407.242188" y="672" xlink:href="#b"/>
 </g>
</svg>
