<?xml version="1.0" encoding="UTF-8"?>
<svg width="700pt" height="700pt" version="1.1" viewBox="0 0 700 700" xmlns="http://www.w3.org/2000/svg" xmlns:xlink="http://www.w3.org/1999/xlink">
 <defs>
  <symbol id="n" overflow="visible">
   <path d="m32.453-1.9375c-1.668 0.86719-3.4062 1.5156-5.2188 1.9531-1.8125 0.44531-3.7109 0.67188-5.6875 0.67188-5.875 0-10.539-1.6406-13.984-4.9219-3.4375-3.2891-5.1562-7.7539-5.1562-13.391 0-5.6445 1.7188-10.113 5.1562-13.406 3.4453-3.2891 8.1094-4.9375 13.984-4.9375 1.9766 0 3.875 0.22656 5.6875 0.67188 1.8125 0.4375 3.5508 1.0938 5.2188 1.9688v7.2969c-1.6875-1.1445-3.3555-1.9844-5-2.5156-1.6367-0.53906-3.3594-0.8125-5.1719-0.8125-3.25 0-5.8086 1.043-7.6719 3.125-1.8555 2.0859-2.7812 4.9531-2.7812 8.6094 0 3.6484 0.92578 6.5117 2.7812 8.5938 1.8633 2.0742 4.4219 3.1094 7.6719 3.1094 1.8125 0 3.5352-0.26562 5.1719-0.79688 1.6445-0.53906 3.3125-1.3828 5-2.5312z"/>
  </symbol>
  <symbol id="i" overflow="visible">
   <path d="m23.75-19.281c-0.74219-0.34375-1.4805-0.59766-2.2188-0.76562-0.73047-0.16406-1.4648-0.25-2.2031-0.25-2.1797 0-3.8555 0.69922-5.0312 2.0938-1.168 1.3984-1.75 3.3984-1.75 6v12.203h-8.4844v-26.5h8.4844v4.3594c1.082-1.7383 2.3281-3.0039 3.7344-3.7969 1.4141-0.80078 3.1094-1.2031 5.0781-1.2031 0.28906 0 0.59766 0.015625 0.92188 0.046875 0.33203 0.023438 0.81641 0.070312 1.4531 0.14062z"/>
  </symbol>
  <symbol id="a" overflow="visible">
   <path d="m30.516-13.312v2.4062h-19.797c0.20703 1.9922 0.92578 3.4844 2.1562 4.4844 1.2266 0.99219 2.9453 1.4844 5.1562 1.4844 1.7812 0 3.6016-0.26562 5.4688-0.79688 1.875-0.53125 3.7969-1.332 5.7656-2.4062v6.5312c-2 0.76172-4.0078 1.3359-6.0156 1.7188-2 0.38281-4 0.57812-6 0.57812-4.793 0-8.5234-1.2188-11.188-3.6562-2.6562-2.4375-3.9844-5.8516-3.9844-10.25 0-4.3203 1.3008-7.7227 3.9062-10.203 2.6133-2.4766 6.2109-3.7188 10.797-3.7188 4.1562 0 7.4844 1.2578 9.9844 3.7656 2.5 2.5117 3.75 5.8672 3.75 10.062zm-8.7031-2.8281c0-1.6016-0.46875-2.8945-1.4062-3.875-0.9375-0.98828-2.1641-1.4844-3.6719-1.4844-1.6484 0-2.9844 0.46484-4.0156 1.3906-1.0234 0.91797-1.6562 2.2422-1.9062 3.9688z"/>
  </symbol>
  <symbol id="h" overflow="visible">
   <path d="m15.953-11.922c-1.7734 0-3.1055 0.30469-4 0.90625-0.88672 0.59375-1.3281 1.4766-1.3281 2.6406 0 1.0742 0.35938 1.918 1.0781 2.5312 0.71875 0.60547 1.7109 0.90625 2.9844 0.90625 1.5938 0 2.9297-0.57031 4.0156-1.7188 1.0938-1.1445 1.6406-2.5781 1.6406-4.2969v-0.96875zm12.938-3.2031v15.125h-8.5469v-3.9219c-1.1367 1.6055-2.4141 2.7773-3.8281 3.5156-1.418 0.72656-3.1484 1.0938-5.1875 1.0938-2.7422 0-4.9688-0.79688-6.6875-2.3906-1.7109-1.6016-2.5625-3.6875-2.5625-6.25 0-3.1016 1.0664-5.3789 3.2031-6.8281 2.1445-1.457 5.5039-2.1875 10.078-2.1875h4.9844v-0.65625c0-1.3438-0.53125-2.3203-1.5938-2.9375-1.0547-0.625-2.6992-0.9375-4.9375-0.9375-1.8125 0-3.5 0.18359-5.0625 0.54688-1.5625 0.35547-3.0117 0.89844-4.3438 1.625v-6.4531c1.8125-0.44531 3.6289-0.78516 5.4531-1.0156 1.832-0.22656 3.6641-0.34375 5.5-0.34375 4.7695 0 8.2188 0.94531 10.344 2.8281 2.125 1.8867 3.1875 4.9492 3.1875 9.1875z"/>
  </symbol>
  <symbol id="c" overflow="visible">
   <path d="m13.312-34.016v7.5156h8.7344v6.0625h-8.7344v11.234c0 1.2305 0.24219 2.0625 0.73438 2.5 0.48828 0.42969 1.4609 0.64062 2.9219 0.64062h4.3438v6.0625h-7.2656c-3.3438 0-5.7148-0.69531-7.1094-2.0938-1.3984-1.3945-2.0938-3.7656-2.0938-7.1094v-11.234h-4.2031v-6.0625h4.2031v-7.5156z"/>
  </symbol>
  <symbol id="b" overflow="visible">
   <path d="m22.094-22.625v-14.188h8.5156v36.812h-8.5156v-3.8281c-1.168 1.5625-2.4531 2.7109-3.8594 3.4375-1.3984 0.71875-3.0156 1.0781-4.8594 1.0781-3.2734 0-5.9609-1.2969-8.0625-3.8906-2.0938-2.5938-3.1406-5.9297-3.1406-10.016 0-4.0938 1.0469-7.4375 3.1406-10.031 2.1016-2.5938 4.7891-3.8906 8.0625-3.8906 1.8203 0 3.4375 0.37109 4.8438 1.1094 1.4141 0.73047 2.707 1.8672 3.875 3.4062zm-5.5781 17.156c1.8125 0 3.1914-0.66016 4.1406-1.9844 0.95703-1.3203 1.4375-3.2422 1.4375-5.7656 0-2.5312-0.48047-4.457-1.4375-5.7812-0.94922-1.3203-2.3281-1.9844-4.1406-1.9844-1.8047 0-3.1836 0.66406-4.1406 1.9844-0.94922 1.3242-1.4219 3.25-1.4219 5.7812 0 2.5234 0.47266 4.4453 1.4219 5.7656 0.95703 1.3242 2.3359 1.9844 4.1406 1.9844z"/>
  </symbol>
  <symbol id="g" overflow="visible">
   <path d="m18.172-5.4688c1.8125 0 3.1914-0.66016 4.1406-1.9844 0.95703-1.3203 1.4375-3.2422 1.4375-5.7656 0-2.5312-0.48047-4.457-1.4375-5.7812-0.94922-1.3203-2.3281-1.9844-4.1406-1.9844s-3.2031 0.66797-4.1719 2c-0.96875 1.3359-1.4531 3.2578-1.4531 5.7656 0 2.5 0.48438 4.418 1.4531 5.75 0.96875 1.3359 2.3594 2 4.1719 2zm-5.625-17.156c1.1641-1.5391 2.457-2.6758 3.875-3.4062 1.4141-0.73828 3.0469-1.1094 4.8906-1.1094 3.2695 0 5.9531 1.2969 8.0469 3.8906s3.1406 5.9375 3.1406 10.031c0 4.0859-1.0469 7.4219-3.1406 10.016s-4.7773 3.8906-8.0469 3.8906c-1.8438 0-3.4766-0.36719-4.8906-1.0938-1.418-0.73828-2.7109-1.8789-3.875-3.4219v3.8281h-8.4844v-36.812h8.4844z"/>
  </symbol>
  <symbol id="f" overflow="visible">
   <path d="m0.59375-26.5h8.4688l7.125 17.984 6.0469-17.984h8.4688l-11.141 29.016c-1.1172 2.9453-2.418 5.0039-3.9062 6.1719-1.4922 1.1758-3.4609 1.7656-5.9062 1.7656h-4.9062v-5.5625h2.6562c1.4375 0 2.4766-0.23047 3.125-0.6875 0.65625-0.44922 1.1641-1.2656 1.5312-2.4531l0.23438-0.73438z"/>
  </symbol>
  <symbol id="e" overflow="visible">
   <path d="m4.4531-35.328h24.578v6.8906h-15.469v6.5781h14.547v6.8906h-14.547v14.969h-9.1094z"/>
  </symbol>
  <symbol id="d" overflow="visible">
   <path d="m3.7812-10.312v-16.188h8.5156v2.6562c0 1.4375-0.011719 3.2422-0.03125 5.4062-0.011719 2.168-0.015625 3.6172-0.015625 4.3438 0 2.125 0.054688 3.6562 0.17188 4.5938 0.11328 0.9375 0.30078 1.6211 0.5625 2.0469 0.35156 0.55469 0.80469 0.98047 1.3594 1.2812 0.5625 0.30469 1.207 0.45312 1.9375 0.45312 1.7578 0 3.1445-0.67578 4.1562-2.0312 1.0078-1.3633 1.5156-3.2539 1.5156-5.6719v-13.078h8.4688v26.5h-8.4688v-3.8281c-1.2812 1.543-2.6367 2.6836-4.0625 3.4219-1.4297 0.72656-3 1.0938-4.7188 1.0938-3.0547 0-5.3828-0.9375-6.9844-2.8125-1.6055-1.875-2.4062-4.6016-2.4062-8.1875z"/>
  </symbol>
  <symbol id="m" overflow="visible">
   <path d="m24.766-25.672v6.4375c-1.8125-0.75781-3.5625-1.3281-5.25-1.7031s-3.2812-0.5625-4.7812-0.5625c-1.6055 0-2.7969 0.20312-3.5781 0.60938-0.78125 0.39844-1.1719 1.0117-1.1719 1.8438 0 0.67969 0.29688 1.1992 0.89062 1.5625 0.59375 0.36719 1.6484 0.63672 3.1719 0.8125l1.5 0.20312c4.332 0.55469 7.25 1.4609 8.75 2.7188 1.5 1.2617 2.25 3.2422 2.25 5.9375 0 2.8242-1.043 4.9492-3.125 6.375-2.0859 1.418-5.1953 2.125-9.3281 2.125-1.75 0-3.5586-0.14062-5.4219-0.42188-1.8672-0.26953-3.7891-0.67969-5.7656-1.2344v-6.4375c1.6875 0.82422 3.4141 1.4453 5.1875 1.8594 1.7812 0.40625 3.5859 0.60938 5.4219 0.60938 1.6562 0 2.8984-0.22656 3.7344-0.6875 0.83203-0.45703 1.25-1.1406 1.25-2.0469 0-0.75-0.28906-1.3047-0.85938-1.6719-0.57422-0.375-1.7266-0.66406-3.4531-0.875l-1.4844-0.1875c-3.7734-0.47656-6.4141-1.3516-7.9219-2.625-1.5117-1.2812-2.2656-3.2227-2.2656-5.8281 0-2.8008 0.95703-4.8789 2.875-6.2344 1.9258-1.3633 4.8789-2.0469 8.8594-2.0469 1.5508 0 3.1875 0.12109 4.9062 0.35938 1.7266 0.24219 3.5977 0.60938 5.6094 1.1094z"/>
  </symbol>
  <symbol id="l" overflow="visible">
   <path d="m29.031-34.203v7.4688c-1.9375-0.86328-3.8359-1.5156-5.6875-1.9531-1.8438-0.44531-3.5859-0.67188-5.2188-0.67188-2.1797 0-3.7891 0.30469-4.8281 0.90625-1.043 0.59375-1.5625 1.5234-1.5625 2.7812 0 0.94922 0.34766 1.6875 1.0469 2.2188 0.70703 0.52344 1.9844 0.97656 3.8281 1.3594l3.875 0.78125c3.9258 0.78125 6.7188 1.9805 8.375 3.5938 1.6562 1.6055 2.4844 3.8906 2.4844 6.8594 0 3.8984-1.1562 6.7969-3.4688 8.7031-2.3047 1.8984-5.8281 2.8438-10.578 2.8438-2.2422 0-4.4922-0.21484-6.75-0.64062-2.25-0.42578-4.5078-1.0547-6.7656-1.8906v-7.6875c2.2578 1.1992 4.4414 2.1016 6.5469 2.7031 2.1016 0.60547 4.1328 0.90625 6.0938 0.90625 1.9883 0 3.5078-0.32812 4.5625-0.98438 1.0625-0.66406 1.5938-1.6133 1.5938-2.8438 0-1.1016-0.35938-1.9531-1.0781-2.5469-0.71875-0.60156-2.1523-1.1406-4.2969-1.6094l-3.5312-0.78125c-3.5312-0.75781-6.1172-1.9688-7.75-3.625-1.625-1.6562-2.4375-3.8828-2.4375-6.6875 0-3.5195 1.1328-6.2266 3.4062-8.125 2.2695-1.8945 5.5312-2.8438 9.7812-2.8438 1.9453 0 3.9414 0.15234 5.9844 0.45312 2.0508 0.29297 4.1758 0.73047 6.375 1.3125z"/>
  </symbol>
  <symbol id="k" overflow="visible">
   <path d="m4.0625-26.5h8.4844v26.5h-8.4844zm0-10.312h8.4844v6.9062h-8.4844z"/>
  </symbol>
  <symbol id="j" overflow="visible">
   <path d="m16.672-21.078c-1.875 0-3.3086 0.67969-4.2969 2.0312-0.98047 1.3438-1.4688 3.2891-1.4688 5.8281 0 2.5312 0.48828 4.4766 1.4688 5.8281 0.98828 1.3438 2.4219 2.0156 4.2969 2.0156 1.8516 0 3.2656-0.67188 4.2344-2.0156 0.97656-1.3516 1.4688-3.2969 1.4688-5.8281 0-2.5391-0.49219-4.4844-1.4688-5.8281-0.96875-1.3516-2.3828-2.0312-4.2344-2.0312zm0-6.0625c4.5625 0 8.125 1.2344 10.688 3.7031 2.5625 2.4609 3.8438 5.8672 3.8438 10.219 0 4.3438-1.2812 7.75-3.8438 10.219-2.5625 2.4609-6.125 3.6875-10.688 3.6875-4.5742 0-8.1523-1.2266-10.734-3.6875-2.5742-2.4688-3.8594-5.875-3.8594-10.219 0-4.3516 1.2852-7.7578 3.8594-10.219 2.582-2.4688 6.1602-3.7031 10.734-3.7031z"/>
  </symbol>
 </defs>
 <g>
  <path d="m688.54 159.92-334.37-158.95c-2.6367-1.2539-5.6992-1.2539-8.3359 0l-334.37 158.95c-3.3438 1.6172-5.4688 5.0078-5.4688 8.7227s2.125 7.1016 5.4688 8.7227l116.59 55.242v104.68c0 72.785 97.5 129.87 221.95 129.87 55.145 1.1367 109.62-12.234 157.98-38.77v47.684l-19.965 41.289h-0.003906c-4.168 7.9844-4.168 17.504 0 25.488 3.9727 6.9648 10.281 12.293 17.809 15.047 7.5273 2.7539 15.785 2.7539 23.312 0 7.5273-2.7539 13.836-8.082 17.809-15.047 4.168-7.9844 4.168-17.504 0-25.488l-19.578-41.289v-60.766c28.008-21.809 44.582-48.461 44.582-78.02v-104.68l116.3-55.438c3.3438-1.6172 5.4648-5.0078 5.4648-8.7227 0-3.7148-2.1211-7.1016-5.4648-8.7227zm-342.71 176.39c2.6367 1.2578 5.6992 1.2578 8.3359 0l153.81-73.074v103.41c-37.508 25.59-94.984 42.355-157.98 42.355-111.46 0-202.56-49.527-202.56-110.49v-56.215zm206.73-37.797c-0.92969 20.176-10.027 39.105-25.199 52.434v-96.918l25.199-11.73zm-34.988-61.254-21.902-10.953 102.73-48.945-0.003906 0.003906c3.3438-1.6211 5.4688-5.0078 5.4688-8.7227s-2.125-7.1055-5.4688-8.7227l-244.24-116.3h0.003907c-2.6367-1.2539-5.6992-1.2539-8.3359 0l-244.24 116.3h0.003906c-3.3438 1.6172-5.4688 5.0078-5.4688 8.7227s2.125 7.1016 5.4688 8.7227l244.24 116.3-0.003907-0.003907c2.6367 1.2578 5.6992 1.2578 8.3359 0l119.21-56.699 21.902 10.855-145.38 69.008-311.69-148.19 311.79-148.19 311.79 148.19zm-171.94-63.773 106.13 52.434-101.28 48.461-222.14-105.74 221.66-105.55 221.66 105.55-98.086 46.715-118.72-59.316c-4.8203-2.4062-10.676-0.45312-13.086 4.3633-2.4102 4.8164-0.45703 10.676 4.3633 13.082z"/>
  <use x="5.9375" y="705.378906" xlink:href="#n"/>
  <use x="41.5" y="705.378906" xlink:href="#i"/>
  <use x="65.398438" y="705.378906" xlink:href="#a"/>
  <use x="98.265625" y="705.378906" xlink:href="#h"/>
  <use x="130.964844" y="705.378906" xlink:href="#c"/>
  <use x="154.132812" y="705.378906" xlink:href="#a"/>
  <use x="186.996094" y="705.378906" xlink:href="#b"/>
  <use x="238.558594" y="705.378906" xlink:href="#g"/>
  <use x="273.246094" y="705.378906" xlink:href="#f"/>
  <use x="321.703125" y="705.378906" xlink:href="#e"/>
  <use x="354.808594" y="705.378906" xlink:href="#d"/>
  <use x="389.308594" y="705.378906" xlink:href="#m"/>
  <use x="418.152344" y="705.378906" xlink:href="#a"/>
  <use x="467.886719" y="705.378906" xlink:href="#l"/>
  <use x="502.789062" y="705.378906" xlink:href="#c"/>
  <use x="525.953125" y="705.378906" xlink:href="#d"/>
  <use x="560.453125" y="705.378906" xlink:href="#b"/>
  <use x="595.140625" y="705.378906" xlink:href="#k"/>
  <use x="611.753906" y="705.378906" xlink:href="#j"/>
 </g>
</svg>
