<?xml version="1.0" standalone="no"?>
<!DOCTYPE svg PUBLIC "-//W3C//DTD SVG 20010904//EN"
 "http://www.w3.org/TR/2001/REC-SVG-20010904/DTD/svg10.dtd">
<svg version="1.0" xmlns="http://www.w3.org/2000/svg"
 width="152.000000pt" height="152.000000pt" viewBox="0 0 152.000000 152.000000"
 preserveAspectRatio="xMidYMid meet">
<metadata>
Created by potrace 1.14, written by Peter Selinger 2001-2017
</metadata>
<g transform="translate(0.000000,152.000000) scale(0.100000,-0.100000)"
fill="#000000" stroke="none">
<path d="M659 1462 c-42 -26 -176 -105 -298 -177 l-221 -130 3 -404 2 -403 66
-38 c36 -20 90 -51 120 -67 30 -17 114 -65 188 -107 73 -42 137 -76 142 -76 4
0 9 -3 11 -7 4 -10 63 -43 77 -43 6 0 55 24 108 54 54 29 139 75 188 101 124
66 231 124 290 156 l50 28 3 403 2 403 -37 20 c-21 11 -91 50 -156 87 -66 38
-120 68 -122 68 -1 0 -51 28 -111 63 -60 35 -116 66 -124 70 -8 4 -28 16 -45
26 -16 11 -37 20 -45 19 -8 0 -49 -21 -91 -46z"/>
</g>
</svg>
